<svg width="274" height="148" viewBox="0 0 274 148" fill="none" xmlns="http://www.w3.org/2000/svg">
<path d="M131 148C121.933 147.867 114.6 147 109 145.4C103.4 143.933 98.7333 141.8 95 139C91.2667 136.2 87.5333 132.867 83.8 129C81.8 126.867 79.1333 123.733 75.8 119.6C72.6 115.333 69.1333 110.6 65.4 105.4C61.6667 100.067 58 94.8667 54.4 89.8C50.8 84.6 47.6 80 44.8 76C42 72 39.9333 69.1333 38.6 67.4L92.4 9.8C89.8667 8.46667 87.2 7.6 84.4 7.2C81.6 6.79999 79.4667 6.59999 78 6.59999V0.599997H123.6V6.59999C121.733 6.59999 119.133 6.79999 115.8 7.2C112.467 7.6 109.267 8.46667 106.2 9.8L56.2 63.6C58.3333 66.1333 61.0667 69.6 64.4 74C67.7333 78.4 71.3333 83.2 75.2 88.4C79.0667 93.6 82.9333 98.7333 86.8 103.8C90.8 108.733 94.4 113 97.6 116.6C101.2 120.467 104.467 124 107.4 127.2C110.467 130.4 113.933 133.2 117.8 135.6C121.667 138 126.533 140.133 132.4 142L131 148ZM1.49012e-07 142V136C1.86667 136 4.53333 135.8 8 135.4C11.4667 135 14.6667 134.133 17.6 132.8V9.8C14.6667 8.46667 11.4667 7.6 8 7.2C4.53333 6.79999 1.86667 6.59999 1.49012e-07 6.59999V0.599997H52.6V6.59999C50.7333 6.59999 48.0667 6.79999 44.6 7.2C41.2667 7.6 38.0667 8.46667 35 9.8V132.8C38.0667 134.133 41.4 135 45 135.4C48.6 135.8 51.4 136 53.4 136V142H1.49012e-07ZM272.211 148C263.144 147.867 255.811 147 250.211 145.4C244.611 143.933 239.944 141.8 236.211 139C232.478 136.2 228.744 132.867 225.011 129C223.011 126.867 220.344 123.733 217.011 119.6C213.811 115.333 210.344 110.6 206.611 105.4C202.878 100.067 199.211 94.8667 195.611 89.8C192.011 84.6 188.811 80 186.011 76C183.211 72 181.144 69.1333 179.811 67.4L233.611 9.8C231.078 8.46667 228.411 7.6 225.611 7.2C222.811 6.79999 220.678 6.59999 219.211 6.59999V0.599997H264.811V6.59999C262.944 6.59999 260.344 6.79999 257.011 7.2C253.678 7.6 250.478 8.46667 247.411 9.8L197.411 63.6C199.544 66.1333 202.278 69.6 205.611 74C208.944 78.4 212.544 83.2 216.411 88.4C220.278 93.6 224.144 98.7333 228.011 103.8C232.011 108.733 235.611 113 238.811 116.6C242.411 120.467 245.678 124 248.611 127.2C251.678 130.4 255.144 133.2 259.011 135.6C262.878 138 267.744 140.133 273.611 142L272.211 148ZM141.211 142V136C143.078 136 145.744 135.8 149.211 135.4C152.678 135 155.878 134.133 158.811 132.8V9.8C155.878 8.46667 152.678 7.6 149.211 7.2C145.744 6.79999 143.078 6.59999 141.211 6.59999V0.599997H193.811V6.59999C191.944 6.59999 189.278 6.79999 185.811 7.2C182.478 7.6 179.278 8.46667 176.211 9.8V132.8C179.278 134.133 182.611 135 186.211 135.4C189.811 135.8 192.611 136 194.611 136V142H141.211Z" fill="black"/>
</svg>
